# Blender 3.6.3
# www.blender.org
mtllib islandmountain.mtl
o Vert.002
v 11.358214 42.513573 -10.588047
v 12.230286 42.505318 -6.303071
v 12.294724 42.515480 2.102279
v 10.340466 42.503258 4.499392
v 9.066245 42.527660 8.430681
v 4.754461 42.499516 8.295000
v 0.711232 42.498009 11.745575
v -2.909941 42.486073 9.594599
v -6.392598 42.473305 9.405930
v -10.460037 42.484951 11.644205
v -13.366347 42.506031 2.921877
v -11.575550 42.509449 -0.962730
v -11.324353 42.493534 -3.198657
v -13.484515 42.521019 -5.526068
v -10.480625 42.507660 -9.155234
v -7.185164 42.490883 -10.772915
v -4.137079 42.486992 -12.745924
v -1.731984 42.535988 -9.237803
v 2.106555 42.524681 -9.905006
v 5.881663 42.470284 -11.626852
v 7.964824 42.514320 -9.447441
v 12.351252 42.493484 -1.976114
v 8.543810 36.846184 -8.388819
v 9.226690 36.796600 -5.092664
v 9.105537 36.870937 1.201813
v 7.696288 36.823524 2.976726
v 6.806646 36.810272 6.058382
v 3.542824 36.776695 5.867690
v 0.477292 36.832020 8.578241
v -2.229653 36.841061 6.768668
v -4.860794 36.838089 6.606471
v -7.924007 36.809799 8.660558
v -10.192833 36.807327 1.711895
v -8.698301 36.818241 -1.089700
v -8.629011 36.771553 -2.714390
v -10.297613 36.804817 -4.487092
v -7.916449 36.805489 -7.290655
v -5.456858 36.814789 -8.460333
v -3.143935 36.801338 -10.122808
v -1.397968 36.810539 -7.206003
v 1.543761 36.810234 -7.768514
v 4.415597 36.821785 -9.223190
v 5.908412 36.825508 -7.349605
v 9.321377 36.788887 -1.856733
v 3.204320 18.897747 -4.067886
v 6.085210 28.041262 -6.404685
v 6.531632 28.017990 -4.072134
v 6.589144 28.007338 0.498901
v 5.447661 28.028152 1.712736
v 4.817758 28.023483 3.909264
v 2.486248 27.994768 3.788006
v 0.288888 28.005169 5.811445
v -1.668712 28.016159 4.492476
v -3.583022 28.025143 4.339670
v -5.786576 27.996187 5.855641
v -7.440112 27.988604 0.837201
v -6.280277 28.020027 -1.164949
v -6.265916 27.983177 -2.370758
v -7.532216 27.981121 -3.642066
v -5.785685 27.990164 -5.677702
v -4.015967 27.993134 -6.542739
v -2.326342 27.993452 -7.718407
v -1.020050 27.982004 -5.706151
v 1.053801 27.992973 -6.039276
v 3.111659 28.034042 -6.980343
v 4.202642 28.020899 -5.665817
v 6.552284 28.028416 -1.737588
v -0.005101 8.717155 -0.681416
v 3.577334 18.835766 -2.812114
v 3.547422 18.848186 -0.298643
v 2.966671 18.851309 0.389604
v 2.498487 18.898317 1.472947
v 1.204270 18.902248 1.333443
v 0.062114 18.861225 2.565200
v -0.950892 18.905117 1.731202
v -1.982880 18.871563 1.835813
v -3.186908 18.900568 2.508823
v -4.016678 18.905214 -0.131425
v -3.515360 18.878933 -1.241605
v -3.459344 18.872601 -1.895425
v -4.114648 18.879463 -2.585190
v -3.241545 18.852671 -3.712234
v -2.282933 18.849874 -4.191641
v -1.316625 18.837259 -4.874690
v -0.685983 18.875927 -3.615876
v 0.429264 18.843410 -3.970923
v 1.616364 18.860790 -4.465628
v 2.172055 18.910637 -3.568175
v 3.539957 18.862024 -1.541838
v 0.046881 8.679434 -0.593708
v 0.079452 8.666639 -0.411583
v 0.026606 8.680820 -0.379707
v -0.012189 8.662698 -0.244029
v -0.111569 8.702112 -0.327978
v -0.178903 8.655141 -0.325121
v -0.264821 8.665698 -0.439852
v -0.331666 8.696196 -0.369159
v -0.372907 8.701712 -0.275041
v -0.396040 8.726542 -0.425609
v -0.362773 8.714912 -0.484733
v -0.479626 8.688988 -0.508143
v -0.406510 8.711534 -0.606303
v -0.427535 8.671991 -0.711000
v -0.322633 8.694227 -0.688826
v -0.238033 8.698734 -0.793720
v -0.259571 8.702276 -0.585321
v -0.146243 8.717528 -0.595133
v -0.087973 8.695972 -0.657063
v -0.060163 8.675500 -0.561380
v 0.059513 8.698075 -0.514321
v -0.243070 7.989749 -0.397381
vn -0.5584 -0.2643 -0.7863
vn 0.9327 -0.3060 -0.1911
vn -0.0672 -0.2554 0.9645
vn -0.4181 -0.2590 -0.8707
vn -0.3633 -0.1069 -0.9255
vn -0.5412 -0.2415 0.8054
vn -0.7281 -0.2887 -0.6217
vn 0.9542 -0.2985 -0.0196
vn 0.6468 -0.2446 0.7224
vn -0.7113 -0.1610 0.6842
vn 0.7490 -0.2638 -0.6078
vn -0.0517 -0.2252 0.9729
vn -0.9647 -0.2626 -0.0208
vn -0.4303 -0.1567 -0.8890
vn 0.9244 -0.2743 0.2652
vn -0.8521 -0.2246 -0.4728
vn -0.1727 -0.1762 -0.9691
vn 0.7341 -0.2676 0.6241
vn -0.9027 -0.3122 0.2961
vn 0.8487 -0.0588 -0.5256
vn 0.9569 -0.2882 0.0357
vn 0.5574 -0.1280 0.8203
vn -0.5042 -0.4428 -0.7414
vn 0.5005 -0.2446 0.8305
vn 0.8751 -0.4823 0.0404
vn 0.8341 -0.1224 -0.5378
vn -0.8172 -0.5095 0.2693
vn 0.6894 -0.4726 0.5490
vn -0.1687 -0.3345 -0.9272
vn -0.8257 -0.3909 -0.4066
vn 0.8503 -0.4558 0.2631
vn -0.4163 -0.2723 -0.8675
vn -0.8957 -0.4395 -0.0672
vn -0.0368 -0.3771 0.9254
vn 0.6745 -0.4438 -0.5899
vn -0.7047 -0.2753 0.6540
vn 0.5944 -0.4141 0.6894
vn 0.8825 -0.4696 -0.0264
vn -0.6725 -0.4816 -0.5620
vn -0.4800 -0.4255 0.7672
vn -0.3321 -0.2058 -0.9205
vn -0.3911 -0.4436 -0.8064
vn -0.0499 -0.4535 0.8898
vn 0.8532 -0.4899 -0.1787
vn 0.9496 -0.3132 -0.0152
vn 0.5349 -0.1438 0.8326
vn -0.5473 -0.3035 -0.7800
vn 0.9169 -0.3346 -0.2173
vn -0.0134 -0.2785 0.9603
vn -0.4216 -0.3006 -0.8555
vn -0.3881 -0.1176 -0.9141
vn -0.5682 -0.2710 0.7770
vn -0.7261 -0.3367 -0.5995
vn 0.9511 -0.3087 0.0076
vn 0.6732 -0.2708 0.6881
vn -0.7025 -0.1822 0.6879
vn 0.7696 -0.2917 -0.5680
vn -0.0679 -0.2462 0.9669
vn -0.9558 -0.2924 -0.0294
vn -0.3953 -0.1796 -0.9008
vn 0.9035 -0.2999 0.3063
vn -0.8510 -0.2629 -0.4546
vn -0.2074 -0.2141 -0.9545
vn 0.7081 -0.2878 0.6448
vn -0.8867 -0.3621 0.2876
vn 0.8584 -0.0740 -0.5077
vn 0.9223 -0.0651 -0.3810
vn 0.9455 -0.3243 -0.0302
vn 0.5203 -0.0938 0.8488
vn -0.5609 -0.3622 -0.7444
vn 0.8758 -0.3743 -0.3048
vn 0.1552 -0.1900 0.9694
vn -0.3629 -0.3601 -0.8594
vn -0.4875 -0.1399 -0.8618
vn -0.6463 -0.1966 0.7373
vn -0.7722 -0.3733 -0.5141
vn 0.9463 -0.3220 0.0281
vn 0.7064 -0.2050 0.6774
vn -0.7961 -0.1653 0.5821
vn 0.8219 -0.3168 -0.4735
vn -0.1609 -0.1316 0.9782
vn -0.9556 -0.2776 0.0991
vn -0.3940 -0.2671 -0.8794
vn 0.8836 -0.2816 0.3741
vn -0.8715 -0.2990 -0.3887
vn -0.2764 -0.2874 -0.9171
vn 0.7228 -0.2554 0.6421
vn -0.9047 -0.3269 0.2730
vn -0.9172 0.1570 -0.3662
vn 0.8909 -0.3157 -0.3265
vn -0.7400 -0.0829 -0.6674
vn -0.0492 -0.2558 -0.9655
vn 0.9936 0.0499 0.1018
vn -0.7276 -0.3308 -0.6010
vn 0.2633 -0.3432 -0.9016
vn -0.9580 -0.1453 0.2473
vn -0.7156 -0.3388 -0.6108
vn -0.2132 0.0821 0.9735
vn -0.8704 -0.1980 -0.4508
vn -0.9733 -0.1976 0.1170
vn 0.9136 0.0988 0.3945
vn 0.7391 0.0659 0.6704
vn -0.7998 0.0120 0.6001
vn 0.1248 -0.1190 0.9850
vn -0.6350 0.0421 0.7714
vn 0.9086 -0.3600 0.2117
vn 0.4651 -0.2035 0.8616
vn 0.8604 -0.4161 -0.2943
vn 0.9153 -0.3995 -0.0518
vn 0.6700 -0.4498 -0.5906
vn -0.0001 1.0000 0.0006
s 0
f 39//1 62//1 61//1 38//1
f 24//2 47//2 46//2 23//2
f 31//3 54//3 53//3 30//3
f 38//4 61//4 60//4 37//4
f 23//5 46//5 66//5 43//5
f 30//6 53//6 52//6 29//6
f 37//7 60//7 59//7 36//7
f 44//8 67//8 47//8 24//8
f 29//9 52//9 51//9 28//9
f 36//10 59//10 58//10 35//10
f 43//11 66//11 65//11 42//11
f 28//12 51//12 50//12 27//12
f 35//13 58//13 57//13 34//13
f 42//14 65//14 64//14 41//14
f 27//15 50//15 49//15 26//15
f 34//16 57//16 56//16 33//16
f 41//17 64//17 63//17 40//17
f 26//18 49//18 48//18 25//18
f 33//19 56//19 55//19 32//19
f 40//20 63//20 62//20 39//20
f 25//21 48//21 67//21 44//21
f 32//22 55//22 54//22 31//22
f 17//23 39//23 38//23 16//23
f 10//24 32//24 31//24 9//24
f 3//25 25//25 44//25 22//25
f 18//26 40//26 39//26 17//26
f 11//27 33//27 32//27 10//27
f 4//28 26//28 25//28 3//28
f 19//29 41//29 40//29 18//29
f 12//30 34//30 33//30 11//30
f 5//31 27//31 26//31 4//31
f 20//32 42//32 41//32 19//32
f 13//33 35//33 34//33 12//33
f 6//34 28//34 27//34 5//34
f 21//35 43//35 42//35 20//35
f 14//36 36//36 35//36 13//36
f 7//37 29//37 28//37 6//37
f 22//38 44//38 24//38 2//38
f 15//39 37//39 36//39 14//39
f 8//40 30//40 29//40 7//40
f 1//41 23//41 43//41 21//41
f 16//42 38//42 37//42 15//42
f 9//43 31//43 30//43 8//43
f 2//44 24//44 23//44 1//44
f 48//45 70//45 89//45 67//45
f 55//46 77//46 76//46 54//46
f 62//47 84//47 83//47 61//47
f 47//48 69//48 45//48 46//48
f 54//49 76//49 75//49 53//49
f 61//50 83//50 82//50 60//50
f 46//51 45//51 88//51 66//51
f 53//52 75//52 74//52 52//52
f 60//53 82//53 81//53 59//53
f 67//54 89//54 69//54 47//54
f 52//55 74//55 73//55 51//55
f 59//56 81//56 80//56 58//56
f 66//57 88//57 87//57 65//57
f 51//58 73//58 72//58 50//58
f 58//59 80//59 79//59 57//59
f 65//60 87//60 86//60 64//60
f 50//61 72//61 71//61 49//61
f 57//62 79//62 78//62 56//62
f 64//63 86//63 85//63 63//63
f 49//64 71//64 70//64 48//64
f 56//65 78//65 77//65 55//65
f 63//66 85//66 84//66 62//66
f 85//67 106//67 105//67 84//67
f 70//68 91//68 110//68 89//68
f 77//69 98//69 97//69 76//69
f 84//70 105//70 104//70 83//70
f 69//71 90//71 68//71 45//71
f 76//72 97//72 96//72 75//72
f 83//73 104//73 103//73 82//73
f 45//74 68//74 109//74 88//74
f 75//75 96//75 95//75 74//75
f 82//76 103//76 102//76 81//76
f 89//77 110//77 90//77 69//77
f 74//78 95//78 94//78 73//78
f 81//79 102//79 101//79 80//79
f 88//80 109//80 108//80 87//80
f 73//81 94//81 93//81 72//81
f 80//82 101//82 100//82 79//82
f 87//83 108//83 107//83 86//83
f 72//84 93//84 92//84 71//84
f 79//85 100//85 99//85 78//85
f 86//86 107//86 106//86 85//86
f 71//87 92//87 91//87 70//87
f 78//88 99//88 98//88 77//88
f 68//89 111//89 109//89
f 109//90 111//90 108//90
f 108//91 111//91 107//91
f 107//92 111//92 106//92
f 106//93 111//93 105//93
f 105//94 111//94 104//94
f 104//95 111//95 103//95
f 103//96 111//96 102//96
f 102//97 111//97 101//97
f 101//98 111//98 100//98
f 100//99 111//99 99//99
f 99//100 111//100 98//100
f 98//101 111//101 97//101
f 97//102 111//102 96//102
f 96//103 111//103 95//103
f 95//104 111//104 94//104
f 94//105 111//105 93//105
f 93//106 111//106 92//106
f 92//107 111//107 91//107
f 91//108 111//108 110//108
f 110//109 111//109 90//109
f 90//110 111//110 68//110
f 1//111 21//111 20//111 19//111 18//111 17//111 16//111 15//111 14//111 13//111 12//111 11//111 10//111 9//111 8//111 7//111 6//111 5//111 4//111 3//111 22//111 2//111
o Vert.001
v 11.693475 42.597992 -10.869337
v 12.574988 42.595154 -6.436920
v 12.671662 42.596954 2.216306
v 10.632483 42.589630 4.660305
v 9.341056 42.618355 8.727770
v 4.888698 42.590683 8.545677
v 0.736372 42.582405 12.141670
v -2.989028 42.568665 9.904940
v -6.563723 42.554512 9.706995
v -10.753490 42.570755 12.047771
v -13.753852 42.594391 3.029003
v -11.895332 42.596672 -0.952529
v -11.615719 42.584282 -3.253481
v -13.878923 42.610977 -5.635194
v -10.771741 42.596283 -9.379809
v -7.381695 42.576286 -11.030237
v -4.246735 42.573357 -13.076366
v -1.777622 42.627357 -9.445433
v 2.170354 42.615143 -10.143103
v 6.058409 42.552078 -11.922485
v 8.189466 42.602463 -9.662525
v 12.693281 42.583115 -1.989972
v 11.548168 44.302750 -10.798514
v 12.375474 44.300377 -6.296987
v 12.502186 44.302452 2.268589
v 10.424606 44.293823 4.598939
v 9.237968 44.324226 8.750468
v 4.769683 44.295219 8.383825
v 0.676786 44.287697 12.149345
v -2.996454 44.274040 9.774012
v -6.507102 44.259460 9.556155
v -10.669569 44.275932 12.165686
v -13.709626 44.299767 2.916565
v -11.748219 44.301956 -0.916426
v -11.450545 44.288551 -3.166263
v -13.846821 44.316612 -5.486963
v -10.668024 44.301277 -9.257338
v -7.324906 44.281303 -10.817335
v -4.218823 44.277435 -12.979000
v -1.826990 44.333176 -9.185540
v 2.098891 44.320930 -9.945669
v 5.971903 44.255241 -11.808411
v 8.003501 44.308632 -9.405697
v 12.480373 44.287682 -1.920265
v -0.655768 44.382607 -0.763720
vn 0.9938 0.1114 -0.0004
vn 0.5098 -0.0127 0.8602
vn -0.5567 0.0890 -0.8259
vn 0.9762 0.1103 -0.1867
vn -0.0587 0.0830 0.9948
vn -0.4273 0.1084 -0.8976
vn -0.3454 0.0564 -0.9368
vn -0.5289 0.0203 0.8484
vn -0.7643 0.0812 -0.6397
vn 0.9923 0.1215 -0.0248
vn 0.6644 0.0685 0.7443
vn -0.7104 -0.0075 0.7038
vn 0.7381 0.1310 -0.6619
vn -0.0616 0.0367 0.9974
vn -0.9875 0.0950 -0.1258
vn -0.4231 0.0630 -0.9039
vn 0.9537 0.0902 0.2869
vn -0.8977 0.0405 -0.4388
vn -0.1803 0.1244 -0.9757
vn 0.7544 0.0852 0.6508
vn -0.9488 0.0351 0.3138
vn 0.8346 0.0626 -0.5473
vn -0.0028 0.9999 -0.0114
vn -0.0074 0.9998 -0.0160
vn 0.0160 0.9999 -0.0019
vn 0.0019 1.0000 -0.0061
vn -0.0179 0.9998 -0.0034
vn -0.0039 1.0000 -0.0075
vn 0.0010 0.9999 -0.0107
vn -0.0027 1.0000 -0.0064
vn -0.0148 0.9995 0.0274
vn -0.0072 1.0000 -0.0069
vn -0.0072 1.0000 -0.0031
vn -0.0051 1.0000 0.0043
vn 0.0177 0.9996 0.0220
vn -0.0047 0.9999 0.0093
vn -0.0091 0.9999 0.0083
vn 0.0045 1.0000 0.0069
vn -0.0077 0.9999 0.0141
vn 0.0102 0.9999 -0.0044
vn 0.0043 1.0000 0.0076
vn 0.0069 1.0000 -0.0036
vn 0.0075 1.0000 0.0027
vn 0.0061 1.0000 -0.0006
vn 0.0001 -1.0000 -0.0007
s 0
f 133//112 155//112 136//112 114//112
f 120//113 142//113 143//113 121//113
f 127//114 149//114 150//114 128//114
f 112//115 134//115 135//115 113//115
f 119//116 141//116 142//116 120//116
f 126//117 148//117 149//117 127//117
f 132//118 154//118 134//118 112//118
f 118//119 140//119 141//119 119//119
f 125//120 147//120 148//120 126//120
f 113//121 135//121 155//121 133//121
f 117//122 139//122 140//122 118//122
f 124//123 146//123 147//123 125//123
f 131//124 153//124 154//124 132//124
f 116//125 138//125 139//125 117//125
f 123//126 145//126 146//126 124//126
f 130//127 152//127 153//127 131//127
f 115//128 137//128 138//128 116//128
f 122//129 144//129 145//129 123//129
f 129//130 151//130 152//130 130//130
f 114//131 136//131 137//131 115//131
f 121//132 143//132 144//132 122//132
f 128//133 150//133 151//133 129//133
f 134//134 154//134 156//134
f 154//135 153//135 156//135
f 153//136 152//136 156//136
f 152//137 151//137 156//137
f 151//138 150//138 156//138
f 150//139 149//139 156//139
f 149//140 148//140 156//140
f 148//141 147//141 156//141
f 147//142 146//142 156//142
f 146//143 145//143 156//143
f 145//144 144//144 156//144
f 144//145 143//145 156//145
f 143//146 142//146 156//146
f 142//147 141//147 156//147
f 141//148 140//148 156//148
f 140//149 139//149 156//149
f 139//150 138//150 156//150
f 138//151 137//151 156//151
f 137//152 136//152 156//152
f 136//153 155//153 156//153
f 155//154 135//154 156//154
f 135//155 134//155 156//155
f 112//156 113//156 133//156 114//156 115//156 116//156 117//156 118//156 119//156 120//156 121//156 122//156 123//156 124//156 125//156 126//156 127//156 128//156 129//156 130//156 131//156 132//156
